<?xml version="1.0" standalone="no"?>
<!DOCTYPE svg PUBLIC "-//W3C//DTD SVG 20010904//EN"
 "http://www.w3.org/TR/2001/REC-SVG-20010904/DTD/svg10.dtd">
<svg version="1.0" xmlns="http://www.w3.org/2000/svg"
 width="274.000000pt" height="180.000000pt" viewBox="0 0 274.000000 180.000000"
 preserveAspectRatio="xMidYMid meet">

<g transform="translate(0.000000,180.000000) scale(0.100000,-0.100000)"
fill="#000000" stroke="none">
<path d="M1303 1643 c26 -2 68 -2 95 0 26 2 4 3 -48 3 -52 0 -74 -1 -47 -3z"/>
<path d="M1203 1633 c9 -2 25 -2 35 0 9 3 1 5 -18 5 -19 0 -27 -2 -17 -5z"/>
<path d="M1463 1633 c9 -2 25 -2 35 0 9 3 1 5 -18 5 -19 0 -27 -2 -17 -5z"/>
<path d="M1148 1623 c6 -2 18 -2 25 0 6 3 1 5 -13 5 -14 0 -19 -2 -12 -5z"/>
<path d="M1528 1623 c6 -2 18 -2 25 0 6 3 1 5 -13 5 -14 0 -19 -2 -12 -5z"/>
<path d="M1108 1613 c7 -3 16 -2 19 1 4 3 -2 6 -13 5 -11 0 -14 -3 -6 -6z"/>
<path d="M1578 1613 c7 -3 16 -2 19 1 4 3 -2 6 -13 5 -11 0 -14 -3 -6 -6z"/>
<path d="M1628 1603 c7 -3 16 -2 19 1 4 3 -2 6 -13 5 -11 0 -14 -3 -6 -6z"/>
<path d="M1233 1589 c-144 -17 -402 -92 -555 -162 -84 -39 -212 -114 -273
-161 -115 -88 -260 -244 -304 -327 l-24 -45 103 -304 c56 -168 108 -315 116
-327 8 -12 23 -27 35 -33 23 -13 601 -48 627 -39 22 9 59 44 97 94 44 58 141
170 193 223 42 44 48 47 97 47 52 0 54 -1 116 -65 35 -36 87 -92 114 -124 122
-143 145 -167 167 -175 9 -3 151 1 313 11 319 18 330 20 359 76 7 15 55 151
106 302 51 151 96 283 101 292 19 35 -66 153 -211 296 -178 175 -446 309 -770
388 -172 42 -267 49 -407 33z m57 -318 l0 -229 -55 -30 -55 -30 0 157 c0 87
-3 160 -6 163 -17 17 -289 -64 -412 -123 -104 -50 -105 -50 -126 -31 -21 20
-21 20 -86 -23 -36 -24 -85 -65 -110 -90 -43 -44 -45 -48 -45 -104 0 -70 -4
-69 -84 12 l-54 55 80 79 c126 127 226 193 424 280 161 72 391 137 502 142
l27 1 0 -229z m393 178 c293 -83 513 -204 686 -377 l73 -74 -63 -64 c-35 -35
-66 -64 -69 -64 -3 0 -5 27 -5 61 l0 61 -61 57 c-33 31 -81 69 -107 84 -46 27
-48 27 -76 11 -27 -16 -30 -16 -72 9 -80 47 -192 89 -324 122 -71 18 -133 31
-137 29 -5 -3 -8 -76 -8 -164 l0 -158 -55 30 -55 30 0 230 0 230 68 -7 c37 -4
129 -25 205 -46z m-28 -296 c-21 -20 -47 4 -31 29 9 16 12 16 28 1 15 -13 15
-17 3 -30z m-607 24 c8 -10 6 -16 -9 -25 -11 -7 -19 -8 -19 -2 0 5 -8 10 -17
10 -15 0 -14 2 3 15 24 18 29 18 42 2z m-198 -92 l40 14 -19 -37 c-17 -34 -18
-41 -5 -71 19 -45 19 -44 -24 -22 -34 17 -40 18 -66 4 -36 -19 -41 -12 -21 28
16 30 16 35 1 66 -21 45 -21 46 19 23 31 -18 38 -18 75 -5z m1065 -5 c-19 -37
-19 -53 1 -91 15 -30 15 -31 -8 -24 -13 4 -29 11 -37 15 -8 5 -27 0 -45 -11
-43 -27 -48 -24 -29 16 16 33 16 37 0 70 -23 47 -22 48 19 30 33 -13 39 -13
72 5 20 10 38 19 40 20 1 0 -4 -13 -13 -30z m-1270 -90 c3 -5 -1 -10 -10 -10
-9 0 -13 5 -10 10 3 6 8 10 10 10 2 0 7 -4 10 -10z m1399 -11 c-3 -5 -10 -7
-15 -3 -5 3 -7 10 -3 15 3 5 10 7 15 3 5 -3 7 -10 3 -15z m-1046 -52 c-10 -12
-15 -12 -26 0 -11 11 -11 17 -2 28 10 13 14 13 27 0 11 -12 12 -17 1 -28z
m698 -2 c-19 -19 -22 -19 -30 1 -4 9 -1 23 5 30 9 11 13 11 26 -1 13 -13 13
-17 -1 -30z m-1145 -44 c-7 -13 -8 -22 -1 -26 19 -12 10 -22 -15 -17 -14 2
-32 -1 -40 -8 -17 -14 -20 -3 -6 19 6 9 6 22 -1 34 -9 17 -7 19 14 14 13 -3
30 -2 38 3 20 12 24 6 11 -19z m1619 16 c20 5 21 4 13 -12 -6 -10 -9 -25 -6
-34 3 -13 -4 -16 -36 -16 -32 -1 -38 2 -29 12 5 7 7 24 4 38 -6 23 -5 25 12
16 10 -5 29 -7 42 -4z m-1446 -18 c-3 -5 -10 -7 -15 -3 -5 3 -7 10 -3 15 3 5
10 7 15 3 5 -3 7 -10 3 -15z m1236 1 c0 -5 -2 -10 -4 -10 -3 0 -8 5 -11 10 -3
6 -1 10 4 10 6 0 11 -4 11 -10z m-682 -102 c-1 -90 -10 -114 -56 -156 -28 -26
-41 -32 -60 -27 -20 5 -33 -2 -68 -36 l-42 -41 -59 19 c-32 11 -58 24 -58 30
0 6 26 39 58 74 32 35 67 74 78 85 10 12 19 31 19 43 0 20 -5 21 -85 21 -67 0
-85 3 -85 14 0 8 -3 21 -6 30 -5 14 14 16 180 16 l186 0 -2 -72z m508 56 c-3
-9 -6 -22 -6 -30 0 -11 -18 -14 -85 -14 -80 0 -85 -1 -85 -21 0 -23 5 -29 100
-132 38 -40 60 -71 54 -76 -5 -5 -33 -16 -62 -26 l-54 -17 -37 36 c-31 30 -43
36 -64 31 -22 -6 -33 0 -72 39 -25 25 -45 52 -45 59 -1 6 -3 47 -7 90 l-5 77
187 0 c167 0 186 -2 181 -16z m-1091 -87 c-5 -24 -2 -37 9 -46 24 -20 19 -28
-14 -23 -21 3 -38 -2 -52 -14 -20 -19 -20 -19 -14 13 6 25 3 36 -13 50 -30 25
-26 34 10 21 27 -9 34 -8 52 11 28 28 29 27 22 -12z m1310 3 c3 -5 20 -7 38
-3 32 6 32 6 13 -15 -14 -16 -17 -30 -12 -53 l6 -31 -26 17 c-14 9 -37 15 -50
12 -27 -5 -29 0 -10 26 10 13 12 27 6 48 -8 26 -7 28 10 19 10 -6 22 -14 25
-20z m-1154 -102 c-12 -13 -17 -15 -20 -6 -2 7 -9 16 -15 20 -8 5 -7 8 2 8 6
0 12 8 12 17 0 15 2 14 18 -2 16 -18 17 -21 3 -37z m990 3 c-12 -12 -17 -13
-19 -4 -2 7 -8 13 -13 13 -5 0 -4 6 3 14 9 9 17 10 29 3 15 -9 15 -11 0 -26z"/>
<path d="M2657 945 c4 -11 7 -39 7 -62 0 -24 1 -43 2 -43 1 0 6 13 12 28 7 22
5 35 -10 63 -10 18 -16 25 -11 14z"/>
<path d="M24 906 c-3 -14 -2 -31 3 -40 6 -11 8 -3 8 24 0 46 -2 50 -11 16z"/>
<path d="M60 774 c0 -18 33 -109 37 -99 2 6 -6 33 -17 60 -10 28 -19 45 -20
39z"/>
<path d="M2611 704 c-13 -36 -21 -67 -19 -69 2 -3 15 25 27 61 13 35 22 67 19
69 -2 2 -14 -25 -27 -61z"/>
<path d="M121 590 c0 -8 11 -42 24 -75 13 -33 24 -53 24 -45 0 8 -11 42 -24
75 -13 33 -24 53 -24 45z"/>
<path d="M2552 528 c-30 -85 -27 -99 4 -19 13 36 23 69 21 74 -1 5 -13 -20
-25 -55z"/>
<path d="M2500 373 c-43 -133 -52 -152 -84 -173 -17 -11 -25 -20 -19 -20 33 0
71 57 102 154 18 54 30 100 27 103 -2 2 -14 -26 -26 -64z"/>
<path d="M180 412 c0 -15 42 -133 46 -129 5 5 -35 137 -41 137 -3 0 -5 -4 -5
-8z"/>
<path d="M230 257 c0 -20 54 -77 73 -77 6 0 1 7 -12 16 -12 9 -31 30 -42 48
-14 23 -19 26 -19 13z"/>
<path d="M328 173 c7 -3 16 -2 19 1 4 3 -2 6 -13 5 -11 0 -14 -3 -6 -6z"/>
<path d="M728 153 c6 -2 18 -2 25 0 6 3 1 5 -13 5 -14 0 -19 -2 -12 -5z"/>
<path d="M1958 153 c7 -3 16 -2 19 1 4 3 -2 6 -13 5 -11 0 -14 -3 -6 -6z"/>
<path d="M898 143 c6 -2 18 -2 25 0 6 3 1 5 -13 5 -14 0 -19 -2 -12 -5z"/>
<path d="M1788 143 c6 -2 18 -2 25 0 6 3 1 5 -13 5 -14 0 -19 -2 -12 -5z"/>
</g>
</svg>
